<svg xmlns="http://www.w3.org/2000/svg" viewBox="0 0 27.4 30.79"><defs><style>.cls-1{fill:#070707;}</style></defs><title>Fichier 1</title><g id="Calque_2" data-name="Calque 2"><g id="Calque_1-2" data-name="Calque 1"><path class="cls-1" d="M24.13,20.16a.66.66,0,0,1-.65-.66.65.65,0,0,1,.65-.65A3.43,3.43,0,0,0,27.4,15.4a3.23,3.23,0,0,0-1.53-2.75.67.67,0,0,1-.22-.88,3.18,3.18,0,0,0,.44-1.59,3.44,3.44,0,0,0-3.26-3.46,3.45,3.45,0,0,0-3.26,3.46.65.65,0,0,1-1.3,0,4.73,4.73,0,0,1,4.56-4.76,4.62,4.62,0,0,1,.65,0v0A2.61,2.61,0,0,0,19,3.57a.65.65,0,0,1-.92-.92,3.9,3.9,0,0,1,2.16-1.1A3.31,3.31,0,0,0,17.61,0a3.46,3.46,0,0,0-3.26,3.46V8.57a2.64,2.64,0,0,1,1.31-.35.65.65,0,0,1,.65.65.66.66,0,0,1-.65.66,1.31,1.31,0,0,0-1.31,1.3v12.4a5.24,5.24,0,0,1,3.92-1.77.65.65,0,0,1,.65.65.66.66,0,0,1-.65.66,3.92,3.92,0,0,0-3.92,3.91,4.07,4.07,0,0,0,3.92,4.11,3.93,3.93,0,0,0,3.54-2.28.64.64,0,0,1,.66-.37l.14,0a3.4,3.4,0,0,0,3.48-3.44A3.12,3.12,0,0,0,26,24a.66.66,0,0,1,.22-.66,3.19,3.19,0,0,0,.71-4.17A4.44,4.44,0,0,1,24.13,20.16Zm-8-7.5a.65.65,0,0,1,.92-.05,3.26,3.26,0,0,0,5.43-2.43.66.66,0,0,1,.66-.65.65.65,0,0,1,.65.65A4.57,4.57,0,0,1,20,14.68a2,2,0,0,0,1.86,1.37.65.65,0,0,1,0,1.3,3.26,3.26,0,0,1-3.2-2.65,4.46,4.46,0,0,1-2.45-1.12A.65.65,0,0,1,16.15,12.66Zm1.46,7.5A.66.66,0,0,1,17,19.5a.65.65,0,0,1,.65-.65,5.86,5.86,0,0,1,5.11,3,.65.65,0,0,1-.25.89.67.67,0,0,1-.89-.25A4.54,4.54,0,0,0,17.61,20.16Zm5.22,5.21a3.45,3.45,0,0,0-3.26,3.46.65.65,0,1,1-1.3,0,4.73,4.73,0,0,1,4.56-4.76.65.65,0,0,1,0,1.3Z"/><path class="cls-1" d="M11.74,8.22a2.64,2.64,0,0,1,1.31.35V3.46A3.46,3.46,0,0,0,9.79,0,3.31,3.31,0,0,0,7.13,1.55a3.9,3.9,0,0,1,2.16,1.1.65.65,0,0,1-.92.92A2.61,2.61,0,0,0,3.92,5.42v0a4.62,4.62,0,0,1,.65,0,4.73,4.73,0,0,1,4.56,4.76.65.65,0,0,1-1.3,0A3.45,3.45,0,0,0,4.57,6.72a3.44,3.44,0,0,0-3.26,3.46,3.18,3.18,0,0,0,.44,1.59.67.67,0,0,1-.22.88A3.23,3.23,0,0,0,0,15.4a3.43,3.43,0,0,0,3.27,3.45.65.65,0,0,1,.65.65.66.66,0,0,1-.65.66,4.44,4.44,0,0,1-2.79-1,3.19,3.19,0,0,0,.71,4.17.66.66,0,0,1,.22.66,3.4,3.4,0,0,0,3.38,4.2l.14,0a.64.64,0,0,1,.66.37,3.93,3.93,0,0,0,3.54,2.28,4.07,4.07,0,0,0,3.92-4.11,3.92,3.92,0,0,0-3.92-3.91.66.66,0,0,1-.65-.66.65.65,0,0,1,.65-.65,5.24,5.24,0,0,1,3.92,1.77V10.83a1.31,1.31,0,0,0-1.31-1.3.66.66,0,0,1-.65-.66A.65.65,0,0,1,11.74,8.22ZM9.13,28.83a.65.65,0,0,1-1.3,0,3.45,3.45,0,0,0-3.26-3.46.65.65,0,0,1,0-1.3A4.73,4.73,0,0,1,9.13,28.83Zm.66-8.67a4.54,4.54,0,0,0-4,2.31.67.67,0,0,1-.89.25.65.65,0,0,1-.25-.89,5.85,5.85,0,0,1,5.11-3,.65.65,0,0,1,.65.65A.66.66,0,0,1,9.79,20.16Zm1.79-7.5a.66.66,0,0,1-.05.92A4.49,4.49,0,0,1,9.08,14.7a3.27,3.27,0,0,1-3.21,2.65.65.65,0,1,1,0-1.3,2,2,0,0,0,1.87-1.37,4.56,4.56,0,0,1-3.82-4.5.65.65,0,0,1,1.3,0,3.27,3.27,0,0,0,5.44,2.43A.65.65,0,0,1,11.58,12.66Z"/></g></g></svg>