<svg width="40" height="40" viewBox="0 0 40 40" fill="none" xmlns="http://www.w3.org/2000/svg">
<path d="M17.7331 13.0537C17.8062 13.1999 17.8794 13.3462 17.9525 13.4559C18.0256 13.5656 18.1353 13.6753 18.2084 13.7849C18.3181 13.8946 18.4278 14.0043 18.5741 14.114C18.6837 14.1871 18.83 14.2968 19.0128 14.3334C19.1591 14.4065 19.3053 14.4431 19.4881 14.4796C19.671 14.5162 19.8172 14.5162 19.9635 14.5162C20.1097 14.5162 20.2925 14.5162 20.4388 14.4796C20.585 14.4431 20.7313 14.4065 20.841 14.3334H20.8775C21.0238 14.2603 21.17 14.1871 21.3163 14.0775C21.426 14.0043 21.5357 13.8946 21.6454 13.7849L21.6819 13.7484C21.7916 13.6387 21.8647 13.529 21.9379 13.4193C22.011 13.3096 22.0841 13.1999 22.1207 13.0537C22.1207 13.0171 22.1207 13.0171 22.1572 12.9806C22.2304 12.8343 22.2669 12.6515 22.3035 12.5052C22.3401 12.359 22.3401 12.1762 22.3401 12.0299C22.3401 11.8837 22.3401 11.7009 22.3035 11.5546C22.2669 11.4083 22.2304 11.2621 22.1572 11.0793C22.0476 10.8233 21.9013 10.604 21.7185 10.4211C21.6819 10.3846 21.6819 10.3846 21.6454 10.348C21.5357 10.2383 21.426 10.1652 21.2797 10.0555C21.1335 9.98239 21.0238 9.90926 20.8775 9.83614C20.7313 9.76301 20.585 9.72645 20.4388 9.68988C20.256 9.65332 20.1097 9.65332 19.9635 9.65332C19.8172 9.65332 19.6344 9.65332 19.4881 9.68988C19.3419 9.72645 19.1956 9.76301 19.0494 9.83614H19.0128C18.8666 9.90926 18.7203 9.98239 18.6106 10.0555C18.4644 10.1652 18.3547 10.2383 18.245 10.348C18.1353 10.4577 18.0256 10.5674 17.9525 10.6771C17.8794 10.7868 17.8062 10.933 17.7331 11.0793C17.66 11.2255 17.6234 11.3718 17.5869 11.518C17.5503 11.7009 17.5503 11.8471 17.5503 11.9934C17.5503 12.1396 17.5503 12.3224 17.5869 12.4687C17.6234 12.7612 17.6965 12.9074 17.7331 13.0537Z" fill="#F2F2F2"/>
<path d="M22.8152 26.4359H21.9743V17.478C21.9743 16.9661 21.5721 16.5273 21.0236 16.5273H17.1845C16.6726 16.5273 16.2339 16.9295 16.2339 17.478V19.4524C16.2339 19.9643 16.6361 20.403 17.1845 20.403H17.9524V26.4725H17.1845C16.6726 26.4725 16.2339 26.8747 16.2339 27.4231V29.3975C16.2339 29.9094 16.6361 30.3482 17.1845 30.3482H22.8152C23.3271 30.3482 23.7659 29.946 23.7659 29.3975V27.4231C23.7659 26.8747 23.3271 26.4359 22.8152 26.4359Z" fill="#F2F2F2"/>
<path d="M20 0C8.95795 0 0 8.95795 0 20C0 31.042 8.95795 40 20 40C31.042 40 40 31.042 40 20C40 8.95795 31.042 0 20 0ZM20 37.3675C10.4205 37.3675 2.63254 29.5795 2.63254 20C2.63254 10.4205 10.4205 2.63254 20 2.63254C29.5795 2.63254 37.3675 10.4205 37.3675 20C37.3675 29.5795 29.5795 37.3675 20 37.3675Z" fill="#F2F2F2"/>
</svg>
