<svg width="34" height="34" viewBox="0 0 34 34" fill="none" xmlns="http://www.w3.org/2000/svg">
<path d="M15.0731 11.0951C15.1353 11.2195 15.1974 11.3438 15.2596 11.437C15.3217 11.5302 15.415 11.6235 15.4771 11.7167C15.5704 11.81 15.6636 11.9032 15.7879 11.9964C15.8812 12.0586 16.0055 12.1518 16.1609 12.1829C16.2852 12.2451 16.4095 12.2761 16.5649 12.3072C16.7203 12.3383 16.8446 12.3383 16.9689 12.3383C17.0932 12.3383 17.2486 12.3383 17.3729 12.3072C17.4972 12.2761 17.6216 12.2451 17.7148 12.1829H17.7459C17.8702 12.1207 17.9945 12.0586 18.1188 11.9653C18.2121 11.9032 18.3053 11.81 18.3985 11.7167L18.4296 11.6856C18.5228 11.5924 18.585 11.4992 18.6472 11.4059C18.7093 11.3127 18.7715 11.2195 18.8026 11.0951C18.8026 11.0641 18.8026 11.0641 18.8336 11.033C18.8958 10.9087 18.9269 10.7533 18.9579 10.629C18.989 10.5047 18.989 10.3493 18.989 10.2249C18.989 10.1006 18.989 9.94524 18.9579 9.82092C18.9269 9.69661 18.8958 9.57229 18.8336 9.4169C18.7404 9.19935 18.6161 9.01288 18.4607 8.85748C18.4296 8.82641 18.4296 8.82641 18.3985 8.79533C18.3053 8.70209 18.2121 8.63993 18.0877 8.5467C17.9634 8.48454 17.8702 8.42238 17.7459 8.36023C17.6216 8.29807 17.4972 8.26699 17.3729 8.23591C17.2175 8.20483 17.0932 8.20483 16.9689 8.20483C16.8446 8.20483 16.6892 8.20483 16.5649 8.23591C16.4406 8.26699 16.3163 8.29807 16.1919 8.36023H16.1609C16.0366 8.42238 15.9122 8.48454 15.819 8.5467C15.6947 8.63993 15.6015 8.70209 15.5082 8.79533C15.415 8.88856 15.3217 8.9818 15.2596 9.07504C15.1974 9.16827 15.1353 9.29259 15.0731 9.4169C15.011 9.54121 14.9799 9.66553 14.9488 9.78984C14.9177 9.94524 14.9177 10.0696 14.9177 10.1939C14.9177 10.3182 14.9177 10.4736 14.9488 10.5979C14.9799 10.8465 15.042 10.9708 15.0731 11.0951Z" fill="#C4C4C4"/>
<path d="M15.0731 11.0951C15.1353 11.2195 15.1974 11.3438 15.2596 11.437C15.3217 11.5302 15.415 11.6235 15.4771 11.7167C15.5704 11.81 15.6636 11.9032 15.7879 11.9964C15.8812 12.0586 16.0055 12.1518 16.1609 12.1829C16.2852 12.2451 16.4095 12.2761 16.5649 12.3072C16.7203 12.3383 16.8446 12.3383 16.9689 12.3383C17.0932 12.3383 17.2486 12.3383 17.3729 12.3072C17.4972 12.2761 17.6216 12.2451 17.7148 12.1829H17.7459C17.8702 12.1207 17.9945 12.0586 18.1188 11.9653C18.2121 11.9032 18.3053 11.81 18.3985 11.7167L18.4296 11.6856C18.5228 11.5924 18.585 11.4992 18.6472 11.4059C18.7093 11.3127 18.7715 11.2195 18.8026 11.0951C18.8026 11.0641 18.8026 11.0641 18.8336 11.033C18.8958 10.9087 18.9269 10.7533 18.9579 10.629C18.989 10.5047 18.989 10.3493 18.989 10.2249C18.989 10.1006 18.989 9.94524 18.9579 9.82092C18.9269 9.69661 18.8958 9.57229 18.8336 9.4169C18.7404 9.19935 18.6161 9.01288 18.4607 8.85748C18.4296 8.82641 18.4296 8.82641 18.3985 8.79533C18.3053 8.70209 18.2121 8.63993 18.0877 8.5467C17.9634 8.48454 17.8702 8.42238 17.7459 8.36023C17.6216 8.29807 17.4972 8.26699 17.3729 8.23591C17.2175 8.20483 17.0932 8.20483 16.9689 8.20483C16.8446 8.20483 16.6892 8.20483 16.5649 8.23591C16.4406 8.26699 16.3163 8.29807 16.1919 8.36023H16.1609C16.0366 8.42238 15.9122 8.48454 15.819 8.5467C15.6947 8.63993 15.6015 8.70209 15.5082 8.79533C15.415 8.88856 15.3217 8.9818 15.2596 9.07504C15.1974 9.16827 15.1353 9.29259 15.0731 9.4169C15.011 9.54121 14.9799 9.66553 14.9488 9.78984C14.9177 9.94524 14.9177 10.0696 14.9177 10.1939C14.9177 10.3182 14.9177 10.4736 14.9488 10.5979C14.9799 10.8465 15.042 10.9708 15.0731 11.0951Z" fill="url(#paint0_linear)"/>
<path d="M19.393 22.4697H18.6782V14.8554C18.6782 14.4203 18.3363 14.0474 17.8701 14.0474H14.6069C14.1718 14.0474 13.7988 14.3892 13.7988 14.8554V16.5337C13.7988 16.9688 14.1407 17.3417 14.6069 17.3417H15.2595V22.5007H14.6069C14.1718 22.5007 13.7988 22.8426 13.7988 23.3088V24.987C13.7988 25.4221 14.1407 25.7951 14.6069 25.7951H19.393C19.8281 25.7951 20.201 25.4532 20.201 24.987V23.3088C20.201 22.8426 19.8281 22.4697 19.393 22.4697Z" fill="#C4C4C4"/>
<path d="M19.393 22.4697H18.6782V14.8554C18.6782 14.4203 18.3363 14.0474 17.8701 14.0474H14.6069C14.1718 14.0474 13.7988 14.3892 13.7988 14.8554V16.5337C13.7988 16.9688 14.1407 17.3417 14.6069 17.3417H15.2595V22.5007H14.6069C14.1718 22.5007 13.7988 22.8426 13.7988 23.3088V24.987C13.7988 25.4221 14.1407 25.7951 14.6069 25.7951H19.393C19.8281 25.7951 20.201 25.4532 20.201 24.987V23.3088C20.201 22.8426 19.8281 22.4697 19.393 22.4697Z" fill="url(#paint1_linear)"/>
<path d="M17 0C7.61426 0 0 7.61426 0 17C0 26.3857 7.61426 34 17 34C26.3857 34 34 26.3857 34 17C34 7.61426 26.3857 0 17 0ZM17 31.7623C8.8574 31.7623 2.23766 25.1426 2.23766 17C2.23766 8.8574 8.8574 2.23766 17 2.23766C25.1426 2.23766 31.7623 8.8574 31.7623 17C31.7623 25.1426 25.1426 31.7623 17 31.7623Z" fill="#C4C4C4"/>
<path d="M17 0C7.61426 0 0 7.61426 0 17C0 26.3857 7.61426 34 17 34C26.3857 34 34 26.3857 34 17C34 7.61426 26.3857 0 17 0ZM17 31.7623C8.8574 31.7623 2.23766 25.1426 2.23766 17C2.23766 8.8574 8.8574 2.23766 17 2.23766C25.1426 2.23766 31.7623 8.8574 31.7623 17C31.7623 25.1426 25.1426 31.7623 17 31.7623Z" fill="url(#paint2_linear)"/>
<defs>
<linearGradient id="paint0_linear" x1="14.9177" y1="10.2716" x2="18.989" y2="10.2716" gradientUnits="userSpaceOnUse">
<stop stop-color="#4B2ABF"/>
<stop offset="1" stop-color="#92FCFE"/>
</linearGradient>
<linearGradient id="paint1_linear" x1="13.7988" y1="19.9212" x2="20.201" y2="19.9212" gradientUnits="userSpaceOnUse">
<stop stop-color="#4B2ABF"/>
<stop offset="1" stop-color="#92FCFE"/>
</linearGradient>
<linearGradient id="paint2_linear" x1="2.5332e-07" y1="17" x2="34" y2="17" gradientUnits="userSpaceOnUse">
<stop stop-color="#4B2ABF"/>
<stop offset="1" stop-color="#92FCFE"/>
</linearGradient>
</defs>
</svg>
