<svg width="1366" height="153" viewBox="0 0 1366 153" fill="none" xmlns="http://www.w3.org/2000/svg">
<path d="M1.99585 102.373C48.8984 123.206 165.257 152.373 255.469 102.373C345.682 52.373 478.24 36.7418 538.381 45.873C587.778 53.373 721.401 126.973 824.786 125.373C954.017 123.373 1029.86 -12.627 1196.01 19.373C1328.94 44.973 1372.81 59 1365.16 59" stroke="#F92965"/>
<path d="M0 78.8731C46.9025 99.7065 128.333 139.5 218.546 89.5001C308.758 39.5001 447.803 19.3688 507.944 28.5C557.342 36 719.405 68.973 822.79 67.373C952.021 65.373 1002.42 -3.49992 1168.57 28.5001C1301.5 54.1001 1370.82 1 1363.17 1" stroke="#92FCFE"/>
<path d="M0.997925 142.373C47.9004 163.206 138.811 149 229.024 99C319.237 49 440.63 99 501.458 99C558.34 99 717.908 60.9731 821.293 59.3731C950.524 57.3731 964.994 42 1133.14 59.373C1267.79 73.2841 1371.82 99 1364.16 99" stroke="#4B2ABF"/>
</svg>
