<svg width="29" height="29" viewBox="0 0 29 29" fill="none" xmlns="http://www.w3.org/2000/svg">
<path d="M24.0116 14.498L14.0435 25.7676C13.3063 26.5048 13.3063 27.7047 14.0435 28.442C14.7807 29.1792 15.9807 29.1792 16.7179 28.442L27.8484 15.8635C28.2245 15.4874 28.4013 14.9945 28.3975 14.5018C28.4013 14.0091 28.2245 13.5125 27.8484 13.1364L16.718 0.550344C15.9808 -0.183204 14.7808 -0.183203 14.0436 0.550344C13.3064 1.28389 13.3064 2.49132 14.0436 3.22475L24.0116 14.498Z" fill="white"/>
<path d="M10.5229 14.4994L0.562393 25.7689C-0.186185 26.5099 -0.186185 27.7099 0.554819 28.4471C1.28837 29.1843 2.4958 29.1843 3.22923 28.4471L14.3596 15.8648C14.7357 15.4887 14.9163 14.9959 14.9087 14.5032C14.9125 14.0105 14.7357 13.5139 14.3596 13.1377L3.23289 0.551684C2.49189 -0.181863 1.28813 -0.181863 0.558486 0.551685C-0.182518 1.28523 -0.182517 2.49266 0.558487 3.22609L10.5229 14.4994Z" fill="white"/>
</svg>
