<svg width="42" height="36" viewBox="0 0 42 36" fill="none" xmlns="http://www.w3.org/2000/svg">
<path d="M21.8383 0.309129C21.0879 -0.115274 20.1999 -0.101435 19.4626 0.342958C19.4272 0.363717 19.3934 0.38832 19.3626 0.414461L8.94476 9.22775H0.768846C0.343674 9.22775 0 9.57142 0 9.99659V24.6047C0 24.8092 0.0807289 25.0045 0.225272 25.1482C0.369815 25.292 0.564333 25.3735 0.768846 25.3735L8.92631 25.3697L19.3388 34.9341C19.3772 34.9695 19.4188 35.0002 19.4626 35.0264C19.8408 35.2547 20.2599 35.3693 20.6789 35.3693C21.0764 35.3685 21.4731 35.2663 21.8383 35.0602C22.6064 34.6266 23.0654 33.8347 23.0654 32.942V2.42807C23.0654 1.53544 22.6064 0.743527 21.8383 0.309129ZM21.5277 32.942C21.5277 33.2734 21.3609 33.5648 21.0825 33.7224C20.9634 33.7893 20.6612 33.9185 20.3137 33.7424L9.995 24.2633V20.7604C9.995 20.3353 9.65133 19.9916 9.22616 19.9916C8.80098 19.9916 8.45731 20.3353 8.45731 20.7604V23.8328L1.53769 23.8358V10.7654H8.45731V13.8408C8.45731 14.266 8.80098 14.6097 9.22616 14.6097C9.65133 14.6097 9.995 14.266 9.995 13.8408V10.3533L20.3014 1.63462C20.6558 1.44856 20.9626 1.5808 21.0825 1.64846C21.3609 1.80607 21.5277 2.09747 21.5277 2.42807V32.942Z" fill="white"/>
<path d="M35.2569 18L41.7393 11.5175C42.0869 11.17 42.0869 10.6082 41.7393 10.2607C41.3918 9.91311 40.83 9.91311 40.4825 10.2607L34 16.7431L27.5175 10.2607C27.17 9.91311 26.6082 9.91311 26.2607 10.2607C25.9131 10.6082 25.9131 11.17 26.2607 11.5175L32.7431 18L26.2607 24.4825C25.9131 24.83 25.9131 25.3918 26.2607 25.7393C26.434 25.9127 26.6615 25.9998 26.8891 25.9998C27.1166 25.9998 27.3442 25.9127 27.5175 25.7393L34 19.2569L40.4825 25.7393C40.6558 25.9127 40.8834 25.9998 41.1109 25.9998C41.3385 25.9998 41.566 25.9127 41.7393 25.7393C42.0869 25.3918 42.0869 24.83 41.7393 24.4825L35.2569 18Z" fill="white"/>
</svg>
