<svg width="39" height="42" viewBox="0 0 39 42" fill="none" xmlns="http://www.w3.org/2000/svg">
<path d="M38.74 0.189594C38.5748 0.0452644 38.3569 -0.0204092 38.1366 0.00555482L14.4308 3.06854C14.0499 3.11818 13.7647 3.4412 13.7647 3.82531V8.42018V11.6367V31.0211C12.3684 29.3449 10.1499 28.2544 7.64706 28.2544C3.43047 28.2544 0 31.3372 0 35.1272C0 38.9172 3.43047 42 7.64706 42C11.8636 42 15.2941 38.9172 15.2941 35.1272C15.2941 34.95 15.2796 34.7759 15.2643 34.6026C15.2742 34.5529 15.2941 34.5079 15.2941 34.4559V12.3079L37.4706 9.44193V23.3838C36.0742 21.7084 33.8558 20.6179 31.3529 20.6179C27.1364 20.6179 23.7059 23.7007 23.7059 27.4907C23.7059 31.2807 27.1364 34.3635 31.3529 34.3635C35.5313 34.3635 38.9335 31.3349 38.9946 27.5923C38.9946 27.5824 39 27.574 39 27.564V8.5729V5.35719V0.763092C39 0.543162 38.9052 0.333923 38.74 0.189594ZM7.64706 40.4727C4.27394 40.4727 1.52941 38.0741 1.52941 35.1272C1.52941 32.1803 4.27394 29.7817 7.64706 29.7817C11.0202 29.7817 13.7647 32.1803 13.7647 35.1272C13.7647 38.0741 11.0202 40.4727 7.64706 40.4727ZM31.3529 32.8362C27.9798 32.8362 25.2353 30.4376 25.2353 27.4907C25.2353 24.5438 27.9798 22.1452 31.3529 22.1452C34.7261 22.1452 37.4706 24.5438 37.4706 27.4907C37.4706 30.4376 34.7261 32.8362 31.3529 32.8362ZM15.2941 10.7676V8.42018V4.49656L37.4706 1.63136V5.35719V7.90166L15.2941 10.7676Z" fill="url(#paint0_linear)"/>
<defs>
<linearGradient id="paint0_linear" x1="2.90573e-07" y1="21" x2="39" y2="21" gradientUnits="userSpaceOnUse">
<stop stop-color="#4B2ABF"/>
<stop offset="1" stop-color="#92FCFE"/>
</linearGradient>
</defs>
</svg>
