<svg width="40" height="40" viewBox="0 0 40 40" fill="none" xmlns="http://www.w3.org/2000/svg">
<path d="M21.8383 2.62407C21.0879 2.19967 20.1999 2.21351 19.4626 2.6579C19.4272 2.67866 19.3934 2.70326 19.3626 2.7294L8.94476 11.5427H0.768846C0.343674 11.5427 0 11.8864 0 12.3115V26.9196C0 27.1241 0.0807289 27.3194 0.225272 27.4632C0.369815 27.607 0.564333 27.6885 0.768846 27.6885L8.92631 27.6846L19.3388 37.2491C19.3772 37.2844 19.4188 37.3152 19.4626 37.3413C19.8408 37.5697 20.2599 37.6842 20.6789 37.6842C21.0764 37.6835 21.4731 37.5812 21.8383 37.3752C22.6064 36.9415 23.0654 36.1496 23.0654 35.257V4.74301C23.0654 3.85038 22.6064 3.05847 21.8383 2.62407ZM21.5277 35.257C21.5277 35.5884 21.3609 35.8797 21.0825 36.0374C20.9634 36.1043 20.6612 36.2334 20.3137 36.0574L9.995 26.5782V23.0754C9.995 22.6502 9.65133 22.3065 9.22616 22.3065C8.80098 22.3065 8.45731 22.6502 8.45731 23.0754V26.1477L1.53769 26.1508V13.0804H8.45731V16.1558C8.45731 16.5809 8.80098 16.9246 9.22616 16.9246C9.65133 16.9246 9.995 16.5809 9.995 16.1558V12.6683L20.3014 3.94956C20.6558 3.7635 20.9626 3.89574 21.0825 3.9634C21.3609 4.12101 21.5277 4.41241 21.5277 4.74301V35.257Z" fill="white"/>
<path d="M29.829 5.43266C29.4269 5.29657 28.9902 5.51185 28.8533 5.91396C28.7172 6.3153 28.9325 6.75277 29.3346 6.88962C34.7942 8.74331 38.4624 13.8577 38.4624 19.6163C38.4624 25.3696 34.8011 30.4847 29.3523 32.3438C28.951 32.4807 28.7357 32.9174 28.8733 33.3203C28.9825 33.6393 29.2808 33.8408 29.6006 33.8408C29.6829 33.8408 29.7667 33.8277 29.849 33.7992C35.9198 31.7287 39.9993 26.0293 39.9993 19.6171C40 13.198 35.9129 7.49855 29.829 5.43266Z" fill="white"/>
<path d="M33.0805 19.6156C33.0805 15.024 29.9981 10.9261 25.585 9.6498C25.1752 9.53371 24.7515 9.76667 24.6331 10.1757C24.5155 10.5832 24.75 11.0099 25.159 11.1275C28.9179 12.2139 31.5435 15.7045 31.5435 19.6156C31.5435 23.5267 28.9179 27.0173 25.159 28.1037C24.7508 28.2213 24.5155 28.648 24.6331 29.0555C24.7308 29.3922 25.0376 29.6114 25.372 29.6114C25.4427 29.6114 25.5142 29.6014 25.585 29.5814C29.9989 28.3051 33.0805 24.2071 33.0805 19.6156Z" fill="white"/>
</svg>
