<svg width="40" height="36" viewBox="0 0 40 36" fill="none" xmlns="http://www.w3.org/2000/svg">
<path d="M21.8383 0.624071C21.0879 0.199667 20.1999 0.213507 19.4626 0.6579C19.4272 0.678659 19.3934 0.703262 19.3626 0.729402L8.94476 9.54269H0.768846C0.343674 9.54269 0 9.88636 0 10.3115V24.9196C0 25.1241 0.0807289 25.3194 0.225272 25.4632C0.369815 25.607 0.564333 25.6885 0.768846 25.6885L8.92631 25.6846L19.3388 35.2491C19.3772 35.2844 19.4188 35.3152 19.4626 35.3413C19.8408 35.5697 20.2599 35.6842 20.6789 35.6842C21.0764 35.6835 21.4731 35.5812 21.8383 35.3752C22.6064 34.9415 23.0654 34.1496 23.0654 33.257V2.74301C23.0654 1.85038 22.6064 1.05847 21.8383 0.624071ZM21.5277 33.257C21.5277 33.5884 21.3609 33.8797 21.0825 34.0374C20.9634 34.1043 20.6612 34.2334 20.3137 34.0574L9.995 24.5782V21.0754C9.995 20.6502 9.65133 20.3065 9.22616 20.3065C8.80098 20.3065 8.45731 20.6502 8.45731 21.0754V24.1477L1.53769 24.1508V11.0804H8.45731V14.1558C8.45731 14.5809 8.80098 14.9246 9.22616 14.9246C9.65133 14.9246 9.995 14.5809 9.995 14.1558V10.6683L20.3014 1.94956C20.6558 1.7635 20.9626 1.89574 21.0825 1.9634C21.3609 2.12101 21.5277 2.41241 21.5277 2.74301V33.257Z" fill="white"/>
<path d="M29.829 3.43266C29.4269 3.29657 28.9902 3.51185 28.8533 3.91396C28.7172 4.3153 28.9325 4.75277 29.3346 4.88962C34.7942 6.74331 38.4624 11.8577 38.4624 17.6163C38.4624 23.3696 34.8011 28.4847 29.3523 30.3438C28.951 30.4807 28.7357 30.9174 28.8733 31.3203C28.9825 31.6393 29.2808 31.8408 29.6006 31.8408C29.6829 31.8408 29.7667 31.8277 29.849 31.7992C35.9198 29.7287 39.9993 24.0293 39.9993 17.6171C40 11.198 35.9129 5.49855 29.829 3.43266Z" fill="white"/>
<path d="M33.0805 17.6156C33.0805 13.024 29.9981 8.92609 25.585 7.6498C25.1752 7.53371 24.7515 7.76667 24.6331 8.1757C24.5155 8.58318 24.75 9.00989 25.159 9.12753C28.9179 10.2139 31.5435 13.7045 31.5435 17.6156C31.5435 21.5267 28.9179 25.0173 25.159 26.1037C24.7508 26.2213 24.5155 26.648 24.6331 27.0555C24.7308 27.3922 25.0376 27.6114 25.372 27.6114C25.4427 27.6114 25.5142 27.6014 25.585 27.5814C29.9989 26.3051 33.0805 22.2071 33.0805 17.6156Z" fill="white"/>
</svg>
